<svg xmlns="http://www.w3.org/2000/svg" xmlns:xlink="http://www.w3.org/1999/xlink" viewBox="0 0 324.257 129.662">
  <defs>
    <style>
      .cls-1 {
        fill: none;
      }

      .cls-2 {
        clip-path: url(#clip-path);
      }

      .cls-3 {
        fill: url(#linear-gradient);
      }

      .cls-4 {
        clip-path: url(#clip-path-2);
      }

      .cls-5 {
        fill: url(#linear-gradient-2);
      }

      .cls-6 {
        clip-path: url(#clip-path-3);
      }

      .cls-7 {
        fill: url(#linear-gradient-3);
      }

      .cls-8 {
        clip-path: url(#clip-path-4);
      }

      .cls-9 {
        fill: url(#linear-gradient-4);
      }

      .cls-10 {
        clip-path: url(#clip-path-5);
      }

      .cls-11 {
        fill: url(#linear-gradient-5);
      }

      .cls-12 {
        clip-path: url(#clip-path-6);
      }

      .cls-13 {
        fill: url(#linear-gradient-6);
      }

      .cls-14 {
        clip-path: url(#clip-path-7);
      }

      .cls-15 {
        fill: url(#linear-gradient-7);
      }

      .cls-16 {
        clip-path: url(#clip-path-8);
      }

      .cls-17 {
        fill: url(#linear-gradient-8);
      }

      .cls-18 {
        clip-path: url(#clip-path-9);
      }

      .cls-19 {
        fill: url(#linear-gradient-9);
      }

      .cls-20 {
        clip-path: url(#clip-path-10);
      }

      .cls-21 {
        fill: url(#linear-gradient-10);
      }

      .cls-22 {
        clip-path: url(#clip-path-11);
      }

      .cls-23 {
        fill: url(#linear-gradient-11);
      }

      .cls-24 {
        clip-path: url(#clip-path-12);
      }

      .cls-25 {
        fill: url(#linear-gradient-12);
      }
    </style>
    <clipPath id="clip-path">
      <path id="Path_25" data-name="Path 25" class="cls-1" d="M567.741,163.314c-9.66,3.133-19.349,8.206-24.12,17.588a43.89,43.89,0,0,0-3.129,8.712,25.067,25.067,0,0,0,2.226,18.757c3.006,5.682,8.627,9.676,13.831,11.719,16.069,6.384,40.254.817,47.88-16.228,1.907-4.264,2.8-12.744.408-17.012-3.439-6.654-14.014-10.841-22.465-10.354-8.745.388-17.421,3.84-22.274,9.75-4.9,5.718-4.938,13.3-.592,17.874,4.469,4.791,10.787,5.31,14.19,5.249,6.589-.159,12.417-2.8,15.75-6.9,3.227-4.011,3.341-9.321-.368-12.7-3.925-3.39-9.86-3.21-13.659-1.311-4.13,1.634-6.576,6.311-3.872,9.011-.65-3.386,2.859-5.335,5.437-5.486,2.81-.408,5.057.817,5.4,1.9.976,2.4-1.916,6.294-8.4,6.478-1.507.041-3.974-.319-5.212-1.781-1.426-1.438-1.846-4.665.666-7.606,2.234-2.941,7.487-5.155,12.9-5.412s10.338,1.822,12.115,5.31c3.513,6.9-.874,13.814-6.536,17.809-6.825,4.812-13.349,5.927-21.465,4.554a22.08,22.08,0,0,1-7.352-2.72,16.008,16.008,0,0,1-6-6.127,17.7,17.7,0,0,1-1.536-13.328c1.515-5.718,3.595-10.939,8.537-14.468,10-7.115,25.909-9.509,37.411-5.114,6.258,2.406,11.817,7.622,18.1,9.5-2.042-8.7-11.139-16.424-19.369-18.659a46.6,46.6,0,0,0-12.156-1.552,53.508,53.508,0,0,0-16.339,2.565" transform="translate(-539.596 -160.769)"/>
    </clipPath>
    <linearGradient id="linear-gradient" x1="-2.271" y1="1.607" x2="-2.267" y2="1.607" gradientUnits="objectBoundingBox">
      <stop offset="0" stop-color="#eb5c28"/>
      <stop offset="1" stop-color="#f8ad3c"/>
    </linearGradient>
    <clipPath id="clip-path-2">
      <path id="Path_26" data-name="Path 26" class="cls-1" d="M505.322,95.441c-6.625,3.125,3.215,15.407,5.608,18.295,6.368,7.655,10.914,14.484,13.034,13.226s-1.07-8.79-5.31-17.784c-1.152-2.451-3.574-8.243-6.727-11.617C510.5,96.029,508.921,95,507.234,95a4.37,4.37,0,0,0-1.9.445" transform="translate(-503.066 -95)"/>
    </clipPath>
    <linearGradient id="linear-gradient-2" x1="-4.82" y1="3.827" x2="-4.811" y2="3.827" gradientUnits="objectBoundingBox">
      <stop offset="0" stop-color="#cfe0a2"/>
      <stop offset="0.5" stop-color="#a8cd7a"/>
      <stop offset="1" stop-color="#76b342"/>
    </linearGradient>
    <clipPath id="clip-path-3">
      <path id="Path_28" data-name="Path 28" class="cls-1" d="M553.176,41.54c-4.085.053-4.9,5.428-4.832,8.545.155,5.334,1.736,10.845,3.517,15.836,4.264,11.9,6.732,22.032,9.77,21.461s2.451-10.967,1.225-23.548a98.489,98.489,0,0,0-2.222-13.761,20.037,20.037,0,0,0-.952-2.974c-1.168-2.859-3.182-5.559-6.474-5.559Z" transform="translate(-548.34 -41.54)"/>
    </clipPath>
    <linearGradient id="linear-gradient-3" x1="-3.814" y1="3.045" x2="-3.806" y2="3.045" gradientUnits="objectBoundingBox">
      <stop offset="0" stop-color="#f9e29e"/>
      <stop offset="0.06" stop-color="#f9e094"/>
      <stop offset="0.17" stop-color="#fadb7a"/>
      <stop offset="0.31" stop-color="#fbd250"/>
      <stop offset="0.48" stop-color="#fdc716"/>
      <stop offset="0.5" stop-color="#fdc50d"/>
      <stop offset="1" stop-color="#f4a81c"/>
    </linearGradient>
    <clipPath id="clip-path-4">
      <path id="Path_30" data-name="Path 30" class="cls-1" d="M653.282,48.94c-2.541,6.731-4.469,13.806-6.388,20.725-.494,1.818-2.41,6.866.1,8.018,2.818,1.3,8.365-7.487,14.7-18.442,1.479-2.569,2.888-5.183,4.166-7.859a43.322,43.322,0,0,0,3.006-7.589c.948-3.676.862-7.352-2.737-8.712a5.22,5.22,0,0,0-1.867-.351c-5.743,0-9.484,10.212-10.983,14.206" transform="translate(-645.729 -34.73)"/>
    </clipPath>
    <linearGradient id="linear-gradient-4" x1="-8.446" y1="3.837" x2="-8.433" y2="3.837" gradientUnits="objectBoundingBox">
      <stop offset="0" stop-color="#cf74a9"/>
      <stop offset="0.26" stop-color="#c84b97"/>
      <stop offset="0.5" stop-color="#c02184"/>
      <stop offset="1" stop-color="#962b87"/>
    </linearGradient>
    <clipPath id="clip-path-5">
      <path id="Path_32" data-name="Path 32" class="cls-1" d="M727.248,199.222c-2.786,1.92-16.882,9.554-14.607,14.125,1.405,2.8,9.023.547,18.095-2.675,5.094-1.8,14.929-7.581,14.929-7.581-1.724-5.2-5.077-7.32-8.933-7.32a17.374,17.374,0,0,0-9.484,3.456" transform="translate(-712.394 -195.77)"/>
    </clipPath>
    <linearGradient id="linear-gradient-5" x1="-5.639" y1="2.191" x2="-5.631" y2="2.191" gradientUnits="objectBoundingBox">
      <stop offset="0" stop-color="#f29054"/>
      <stop offset="0.5" stop-color="#ee7724"/>
      <stop offset="1" stop-color="#d06329"/>
    </linearGradient>
    <clipPath id="clip-path-6">
      <path id="Path_34" data-name="Path 34" class="cls-1" d="M611.19,11.537c-8.059.841-7.352,16.436-7.393,21.759-.041,7.042.58,14.084,1.14,21.093.155,1.973-.167,12.662,3.231,12.911,3.268.216,5.547-12,7.761-26.958.6-4.052,1.054-8.116,1.315-12.2a50.722,50.722,0,0,0,.188-8.169,13.6,13.6,0,0,0-.756-3.362c-.8-2.12-2.528-5.106-5.13-5.106h-.356" transform="translate(-603.795 -11.5)"/>
    </clipPath>
    <linearGradient id="linear-gradient-6" x1="-6.1" y1="2.992" x2="-6.09" y2="2.992" gradientUnits="objectBoundingBox">
      <stop offset="0" stop-color="#35beed"/>
      <stop offset="0.5" stop-color="#31a7df"/>
      <stop offset="1" stop-color="#2190ce"/>
    </linearGradient>
    <clipPath id="clip-path-7">
      <path id="Path_35" data-name="Path 35" class="cls-1" d="M14.178,141.363c0-4.542,1.442-8.083,5.874-8.083s5.866,3.541,5.866,8.083v4.983H14.178ZM0,147.784V160.3c0,15.281,2.218,25.133,20.6,25.133,10.963,0,18.381-6.535,18.381-17.38,0-5.31-2.859-6.65-6.87-6.65-3.762,0-6.417,1.336-6.642,7.2-.106,3.215-2.324,6.2-5.2,6.2-5.535,0-6.094-5.649-6.094-12.846v-6.082H31.9c6.866,0,7.528-4.211,7.528-9.636,0-15.726-4.759-23.589-18.822-23.589C2.218,122.648,0,132.5,0,147.784" transform="translate(0 -122.66)"/>
    </clipPath>
    <linearGradient id="linear-gradient-7" x1="-0.363" y1="2.32" x2="-0.352" y2="2.32" gradientUnits="objectBoundingBox">
      <stop offset="0" stop-color="#a8cd7a"/>
      <stop offset="1" stop-color="#76b342"/>
    </linearGradient>
    <clipPath id="clip-path-8">
      <path id="Path_36" data-name="Path 36" class="cls-1" d="M98.284,129.8v-7.859c0-13.173,1.225-16.829,5.759-16.829,3.215,0,6.646,2.451,6.646,14.5v11.294c0,8.529-1.438,14.623-6.756,14.623-4.979,0-5.649-5.759-5.649-15.734m12.4-47.614V100.9h-.221A13.269,13.269,0,0,0,98.5,93.919c-12.18,0-14.394,11.073-14.394,23.372v16.057c0,12.295,2.214,23.36,14.394,23.36,5.094,0,9.525-2.21,11.96-6.972h.221a6.628,6.628,0,0,0,6.756,6.972c4.085,0,6.756-2.545,6.756-8.079V82.183c0-5.535-2.659-8.083-6.756-8.083s-6.756,2.549-6.756,8.083" transform="translate(-84.11 -74.1)"/>
    </clipPath>
    <linearGradient id="linear-gradient-8" x1="-1.213" y1="2.003" x2="-1.203" y2="2.003" gradientUnits="objectBoundingBox">
      <stop offset="0" stop-color="#fdc50d"/>
      <stop offset="1" stop-color="#f4a81c"/>
    </linearGradient>
    <clipPath id="clip-path-9">
      <path id="Path_37" data-name="Path 37" class="cls-1" d="M196.367,130.718v32.223c0,7.532-2.328,10.743-7.087,10.743-3.329,0-5.2-1.879-5.2-6.315V130.718c0-5.535-2.663-8.088-6.76-8.088s-6.756,2.553-6.756,8.088v39.853c0,10.183,5.428,14.831,12.956,14.831,5.208,0,10.412-2.545,12.621-7.761h.225c0,5.2,2.655,7.761,6.752,7.761s6.756-2.545,6.756-8.079V130.718c0-5.535-2.659-8.088-6.756-8.088s-6.752,2.553-6.752,8.088" transform="translate(-170.56 -122.63)"/>
    </clipPath>
    <linearGradient id="linear-gradient-9" x1="-2.136" y1="2.32" x2="-2.125" y2="2.32" gradientUnits="objectBoundingBox">
      <stop offset="0" stop-color="#31a7df"/>
      <stop offset="1" stop-color="#2190ce"/>
    </linearGradient>
    <clipPath id="clip-path-10">
      <path id="Path_38" data-name="Path 38" class="cls-1" d="M437.056,160.166V148.32c0-12.066,3.431-14.517,6.646-14.517,4.546,0,5.772,3.676,5.772,16.837v8.418c0,9.966-.662,15.73-5.653,15.73-5.31,0-6.752-6.09-6.752-14.619m.225-29.454h-.225c0-5.535-2.655-8.088-6.752-8.088s-6.756,2.553-6.756,8.088V198.81c0,5.539,2.659,8.083,6.756,8.083s6.752-2.545,6.752-8.083V178.657h.225c2.451,4.542,6.862,6.752,11.96,6.752,12.18,0,14.4-11.069,14.4-23.36V145.992c0-12.295-2.214-23.372-14.4-23.372a13.393,13.393,0,0,0-11.96,8.088" transform="translate(-423.56 -122.62)"/>
    </clipPath>
    <linearGradient id="linear-gradient-10" x1="-4.672" y1="1.729" x2="-4.662" y2="1.729" gradientUnits="objectBoundingBox">
      <stop offset="0" stop-color="#be292e"/>
      <stop offset="0.68" stop-color="#d72529"/>
      <stop offset="1" stop-color="#e52327"/>
    </linearGradient>
    <clipPath id="clip-path-11">
      <path id="Path_39" data-name="Path 39" class="cls-1" d="M351.088,167.706c0-5.1,1.107-7.2,7.087-11.412l4.763-3.321v10.62c0,6.315-2.663,11.188-7.091,11.188-2.859,0-4.758-2.553-4.758-7.087M337.58,138.562c0,4.085,4.085,5.543,7.087,5.543,3.541,0,6.086-1.662,6.421-4.317.555-4.763,1.993-7.091,6.642-7.091,3.435,0,5.208,2.765,5.208,5.976,0,2.549-1.336,4.767-4.322,6.311l-12.07,6.327c-7.083,3.766-9.636,8.986-9.636,18.046,0,11.294,5.98,16.053,13.961,16.053,4.865,0,9.852-2.1,12.291-7.528l.221-.106c0,5.865,3.431,7.634,7.087,7.634,4.313,0,6.752-1.773,6.752-5.31,0-1.883-.776-5.094-.776-8.986V140.339c0-9.746-1.989-17.719-20.047-17.719-10.408,0-18.822,5.539-18.822,15.93" transform="translate(-336.91 -122.62)"/>
    </clipPath>
    <linearGradient id="linear-gradient-11" x1="-3.768" y1="2.32" x2="-3.758" y2="2.32" xlink:href="#linear-gradient"/>
    <clipPath id="clip-path-12">
      <path id="Path_40" data-name="Path 40" class="cls-1" d="M257.67,148.539v10.967c0,14.394,1.773,25.909,19.819,25.909,15.93,0,18.716-12.613,18.716-18.605,0-4.979-2.659-7.859-6.65-7.859-4.313,0-6.535,2.1-6.862,9.746-.11,4.763-2.549,6.09-5.094,6.09-4.322,0-5.755-4.207-5.755-14.178V147.33c0-7.973.331-14.067,5.755-14.067,2.88,0,5.094,1.993,5.094,5.759,0,5.539,2.324,7.642,6.862,7.642,3.77,0,6.65-2.332,6.65-7.642,0-5.424-3.211-16.392-18.716-16.392-18.046,0-19.819,11.519-19.819,25.913" transform="translate(-257.67 -122.63)"/>
    </clipPath>
    <linearGradient id="linear-gradient-12" x1="-3.102" y1="2.32" x2="-3.091" y2="2.32" gradientUnits="objectBoundingBox">
      <stop offset="0" stop-color="#c02184"/>
      <stop offset="1" stop-color="#962b87"/>
    </linearGradient>
  </defs>
  <g id="educap" transform="translate(0 -19.5)">
    <g id="Layer_1" data-name="Layer 1" transform="translate(0 19.5)">
      <g id="Group_11" data-name="Group 11" class="cls-2" transform="translate(220.405 60.97)">
        <path id="Path_24" data-name="Path 24" class="cls-3" d="M511.32,146.318l12.548,75.206,85.712-12.638L597.031,133.68Z" transform="translate(-522.87 -144.745)"/>
      </g>
      <g id="Group_12" data-name="Group 12" class="cls-4" transform="translate(205.483 34.106)">
        <rect id="Rectangle_173" data-name="Rectangle 173" class="cls-5" width="43.064" height="42.182" transform="translate(-20.597 20.143) rotate(-51.14)"/>
      </g>
      <g id="Group_13" data-name="Group 13" class="cls-6" transform="translate(223.976 12.27)">
        <path id="Path_27" data-name="Path 27" class="cls-7" d="M498.31,43.359l24.769,41.3,32.35-19.843L530.664,23.52Z" transform="translate(-518.745 -30.88)"/>
      </g>
      <g id="Group_14" data-name="Group 14" class="cls-8" transform="translate(263.756 9.489)">
        <path id="Path_29" data-name="Path 29" class="cls-9" d="M637.722,30.42,634.07,76.192l28.7,2.006,3.656-45.772Z" transform="translate(-638.832 -32.18)"/>
      </g>
      <g id="Group_15" data-name="Group 15" class="cls-10" transform="translate(290.986 75.267)">
        <path id="Path_31" data-name="Path 31" class="cls-11" d="M711.266,144.27l-24.606,32.1,27.665,30.336,24.61-32.1Z" transform="translate(-697.171 -165.306)"/>
      </g>
      <g id="Group_16" data-name="Group 16" class="cls-12" transform="translate(246.627)">
        <path id="Path_33" data-name="Path 33" class="cls-13" d="M570.4,9.28l14.165,56.147,26.374-9.28L596.778,0Z" transform="translate(-584.041 -4.697)"/>
      </g>
      <g id="Group_17" data-name="Group 17" class="cls-14" transform="translate(0 45.405)">
        <rect id="Rectangle_174" data-name="Rectangle 174" class="cls-15" width="39.425" height="62.789" transform="translate(0 -0.012)"/>
      </g>
      <g id="Group_18" data-name="Group 18" class="cls-16" transform="translate(34.356 25.57)">
        <rect id="Rectangle_175" data-name="Rectangle 175" class="cls-17" width="40.091" height="82.607" transform="translate(0 0.004)"/>
      </g>
      <g id="Group_19" data-name="Group 19" class="cls-18" transform="translate(69.667 45.392)">
        <rect id="Rectangle_176" data-name="Rectangle 176" class="cls-19" width="39.314" height="62.789" transform="translate(0 0)"/>
      </g>
      <g id="Group_20" data-name="Group 20" class="cls-20" transform="translate(173.008 45.388)">
        <rect id="Rectangle_177" data-name="Rectangle 177" class="cls-21" width="40.086" height="84.27" transform="translate(-0.012 0.004)"/>
      </g>
      <g id="Group_21" data-name="Group 21" class="cls-22" transform="translate(137.615 45.388)">
        <rect id="Rectangle_178" data-name="Rectangle 178" class="cls-23" width="40.311" height="62.789" transform="translate(-0.004 0.004)"/>
      </g>
      <g id="Group_22" data-name="Group 22" class="cls-24" transform="translate(105.248 45.392)">
        <rect id="Rectangle_179" data-name="Rectangle 179" class="cls-25" width="38.538" height="62.789" transform="translate(0 0)"/>
      </g>
    </g>
  </g>
</svg>
