<svg xmlns="http://www.w3.org/2000/svg" viewBox="0 0 105.997 115.79">
  <defs>
    <style>
      .cls-1, .cls-2 {
        fill: none;
        stroke: #a6538d;
        fill-rule: evenodd;
      }

      .cls-1 {
        stroke-linecap: round;
        stroke-width: 5px;
      }

      .cls-2 {
        stroke-width: 3px;
      }
    </style>
  </defs>
  <g id="Group_156" data-name="Group 156" transform="translate(-605.251 -2328.888)">
    <path id="Path_48" data-name="Path 48" class="cls-1" d="M65.889,110.79V93.465l20.45-1.224a3.449,3.449,0,0,0,3.25-3.473l-.2-22.41h8.123a3.453,3.453,0,0,0,3.32-4.426c-.048-.16-4.784-16.1-8.532-28.947C90.014,25.144,84.65,17.2,77.594,11.2A46.028,46.028,0,0,0,47.5,0C35.763,0,23.769,4.9,14.59,13.428,5.319,22.052,0,33.409,0,44.588A53.082,53.082,0,0,0,9.588,74.58a57.339,57.339,0,0,0,8.389,9.758V103.7" transform="translate(607.751 2331.388)"/>
    <path id="Path_49" data-name="Path 49" class="cls-2" d="M31.315,35.534a7.793,7.793,0,0,0,0-2.278l2.532-1.934a.573.573,0,0,0,.144-.748L31.6,26.526a.6.6,0,0,0-.73-.251l-2.982,1.174A9.138,9.138,0,0,0,25.86,26.3l-.449-3.1a.612.612,0,0,0-.6-.491h-4.79a.6.6,0,0,0-.593.491l-.449,3.1a8.914,8.914,0,0,0-2.024,1.151l-2.982-1.174a.606.606,0,0,0-.73.251l-2.395,4.048a.576.576,0,0,0,.144.748l2.527,1.934a7.781,7.781,0,0,0,0,2.278l-2.527,1.934a.573.573,0,0,0-.144.748l2.395,4.048a.6.6,0,0,0,.73.251l2.982-1.174a9.14,9.14,0,0,0,2.024,1.151l.449,3.1a.6.6,0,0,0,.593.491h4.79a.6.6,0,0,0,.593-.491l.449-3.1a8.911,8.911,0,0,0,2.024-1.151l2.982,1.174a.606.606,0,0,0,.73-.251l2.395-4.048a.576.576,0,0,0-.144-.748l-2.526-1.934Zm-8.9,2.95a4.09,4.09,0,1,1,4.191-4.089,4.138,4.138,0,0,1-4.191,4.089Z" transform="translate(610.419 2337.014)"/>
    <path id="Path_50" data-name="Path 50" class="cls-2" d="M29.785,14.107a13.68,13.68,0,0,0-.5-1.617,13.535,13.535,0,0,0-.72-1.523l2.324-4.079a.874.874,0,0,0-.209-1.111L25.348,1.536a.832.832,0,0,0-1.1.062L20.92,4.88a12.576,12.576,0,0,0-3.3-.456L15.374.408A.855.855,0,0,0,14.318.066L7.969,2.741a.9.9,0,0,0-.524,1.007L8.5,8.266a13.225,13.225,0,0,0-2.068,2.716l-4.579.047a.881.881,0,0,0-.834.754L.01,18.7a.855.855,0,0,0,.59.95L4.982,20.9a13.679,13.679,0,0,0,.5,1.617A13.5,13.5,0,0,0,6.2,24.042L3.882,28.118a.874.874,0,0,0,.209,1.111l5.337,4.242a.832.832,0,0,0,1.1-.062l3.325-3.283a12.576,12.576,0,0,0,3.3.456L19.4,34.6a.839.839,0,0,0,1.048.345L26.8,32.269a.9.9,0,0,0,.524-1.007l-1.058-4.517a13.225,13.225,0,0,0,2.068-2.716l4.58-.047a.881.881,0,0,0,.834-.754l1.013-6.916a.855.855,0,0,0-.59-.95l-4.382-1.254ZM19.567,23.14a5.824,5.824,0,0,1-7.739-3.3A6.246,6.246,0,0,1,15.2,11.869a5.825,5.825,0,0,1,7.739,3.3,6.246,6.246,0,0,1-3.372,7.976Z" transform="translate(641.16 2341.368) rotate(-2)"/>
  </g>
</svg>
