<svg xmlns="http://www.w3.org/2000/svg" viewBox="0 0 101.971 102">
  <defs>
    <style>
      .cls-1 {
        fill: #a6538d;
        stroke: #a6538d;
        stroke-width: 2px;
      }
    </style>
  </defs>
  <g id="noun_Dentist_1791701" transform="translate(-8.986 -8.988)">
    <path id="Path_80" data-name="Path 80" class="cls-1" d="M66.575,33.027a20.661,20.661,0,0,0-6.232,1.585,11.473,11.473,0,0,1-9.565.08,18.64,18.64,0,0,0-11.278-1.4c-5.643,1.134-9.563,4.828-10.483,9.884a20.113,20.113,0,0,0,3.441,15.948,20.034,20.034,0,0,1,1.866,3.493l.1.226a2.542,2.542,0,0,1,.038.805l-.011.323A69.47,69.47,0,0,0,35.71,80.049c.627,2.971,3.735,11.218,7.351,13.058.015.008.031.006.046.013s.025.021.041.027a4.661,4.661,0,0,0,1.8.38,3.993,3.993,0,0,0,2.219-.677c4.949-3.243,5.332-18.281,5.36-20.006a2.749,2.749,0,1,1,5.5.02c.028,1.7.411,16.742,5.36,19.986a4,4,0,0,0,2.219.677,4.666,4.666,0,0,0,1.8-.38,1.239,1.239,0,0,0,.161-.081,13.061,13.061,0,0,0,4.964-5.73,30.916,30.916,0,0,0,2.835-9.677c.445-3.256.865-12.458.816-13.889a4.607,4.607,0,0,1,.7-2.624l.288-.481a15,15,0,0,1,.908-1.41,19.529,19.529,0,0,0,3.948-12.711,14.173,14.173,0,0,0-2.042-7.526C77.385,34.9,71.993,32.483,66.575,33.027Zm9.5,24.72a17.174,17.174,0,0,0-1.065,1.642l-.275.459a7.125,7.125,0,0,0-1.057,4.007c.043,1.279-.367,10.331-.8,13.465a28.448,28.448,0,0,1-2.6,8.9,10.42,10.42,0,0,1-3.926,4.646,1.611,1.611,0,0,1-1.607-.111c-2.9-1.9-4.135-12.01-4.231-17.916a5.248,5.248,0,1,0-10.495-.02c-.1,5.926-1.331,16.037-4.231,17.936a1.632,1.632,0,0,1-1.639.093c-2.249-1.2-5.23-7.682-6-11.321a67.029,67.029,0,0,1-1.2-15.509l.009-.275a4.114,4.114,0,0,0-.259-1.938l-.1-.225a22.172,22.172,0,0,0-2.116-3.923,17.481,17.481,0,0,1-3.009-14.037c.731-4.011,3.915-6.957,8.518-7.881a15.971,15.971,0,0,1,9.787,1.239,13.85,13.85,0,0,0,11.552-.076,18.208,18.208,0,0,1,5.49-1.393c4.434-.434,8.971,1.548,11.032,4.833A11.787,11.787,0,0,1,79.512,46.6,17.124,17.124,0,0,1,76.072,57.747Z" transform="translate(4.653 5.732)"/>
    <path id="Path_81" data-name="Path 81" class="cls-1" d="M39.995,37.756a7.511,7.511,0,0,0-5.8,6.27,13.8,13.8,0,0,0,1.82,9.712,1.25,1.25,0,1,0,2.121-1.322,11.219,11.219,0,0,1-1.471-8,4.99,4.99,0,0,1,3.893-4.223,1.25,1.25,0,0,0-.566-2.435Z" transform="translate(5.993 6.924)"/>
    <path id="Path_82" data-name="Path 82" class="cls-1" d="M11.236,12.488h18.45v7.059H16.393a1.249,1.249,0,0,0-1.25,1.25v87.942a1.249,1.249,0,0,0,1.25,1.25h87.156a1.249,1.249,0,0,0,1.25-1.25V20.8a1.249,1.249,0,0,0-1.25-1.25H90.256V12.488h18.452a1.25,1.25,0,1,0,0-2.5H11.236a1.25,1.25,0,0,0,0,2.5ZM102.3,22.046v85.443H17.643V22.046H29.686V26.83a5.633,5.633,0,1,0,2.5,0V22.046H87.757V26.83a5.633,5.633,0,1,0,2.5,0V22.046H102.3ZM30.936,29.178A3.134,3.134,0,1,1,27.8,32.312,3.137,3.137,0,0,1,30.936,29.178Zm58.07,0a3.134,3.134,0,1,1-3.133,3.134A3.137,3.137,0,0,1,89.006,29.178Zm-1.25-9.632H32.186V12.488H87.757Z"/>
  </g>
</svg>
