<svg xmlns="http://www.w3.org/2000/svg" viewBox="0 0 102.1 102">
  <defs>
    <style>
      .cls-1, .cls-2 {
        fill: #a6538d;
        stroke: #a6538d;
        stroke-width: 2px;
      }

      .cls-2 {
        stroke-linecap: round;
        stroke-linejoin: round;
        stroke-miterlimit: 10;
      }
    </style>
  </defs>
  <g id="noun_Class_798372" transform="translate(1 1)">
    <g id="Group_150" data-name="Group 150">
      <path id="Path_55" data-name="Path 55" class="cls-1" d="M84.1,43.7a6.6,6.6,0,1,1,6.6-6.6A6.659,6.659,0,0,1,84.1,43.7Zm0-10.7a4.1,4.1,0,1,0,4.1,4.1A4.118,4.118,0,0,0,84.1,33Z"/>
      <path id="Path_56" data-name="Path 56" class="cls-1" d="M89.2,69.2H78.7a1.76,1.76,0,0,1-1.3-.6,1.9,1.9,0,0,1-.5-1.3l.8-14.1a.891.891,0,0,0-.5-.8l-13.5-6a3.335,3.335,0,0,1-1.8-4h0a3.333,3.333,0,0,1,1.6-1.9,3.135,3.135,0,0,1,2.5-.2c10.4,3.4,14.8,4.8,15.4,4.8h5.2a4.247,4.247,0,0,1,4.2,4.3v18A1.531,1.531,0,0,1,89.2,69.2Zm-9.7-2.5h9V49.5a1.774,1.774,0,0,0-1.7-1.8H81.5c-.3,0-1,0-16.1-5-.2-.1-.4,0-.6,0a1,1,0,0,0-.4.5.751.751,0,0,0,.4.9l13.5,6a3.5,3.5,0,0,1,2,3.2Z"/>
      <path id="Path_57" data-name="Path 57" class="cls-1" d="M84.9,100H83.1a2.93,2.93,0,0,1-2.8-2.8L77.8,73.4a2.769,2.769,0,0,1,.6-2.1,1.974,1.974,0,0,1,1.4-.6h8.4a1.8,1.8,0,0,1,1.5.7,1.845,1.845,0,0,1,.5,1.6L87.6,96.9A2.988,2.988,0,0,1,84.9,100ZM80.3,73.2,82.7,97c0,.2.2.5.3.5h1.8c.1,0,.3-.3.3-.8l2.5-23.5Z"/>
      <path id="Path_58" data-name="Path 58" class="cls-1" d="M78.6,7.4H8.5A1.324,1.324,0,0,1,7.2,6.1V1.3A1.4,1.4,0,0,1,8.5,0H78.6a1.324,1.324,0,0,1,1.3,1.3V6.2A1.389,1.389,0,0,1,78.6,7.4ZM9.8,4.9H77.4V2.5H9.8Z"/>
      <path id="Path_59" data-name="Path 59" class="cls-1" d="M73.6,58.2H13.5a1.324,1.324,0,0,1-1.3-1.3V6.3A1.324,1.324,0,0,1,13.5,5H73.6a1.324,1.324,0,0,1,1.3,1.3V43.7a1.3,1.3,0,0,1-2.6,0V7.5H14.7V55.7H72.3V49.5a1.3,1.3,0,0,1,2.6,0V57A1.381,1.381,0,0,1,73.6,58.2Z"/>
      <path id="Path_60" data-name="Path 60" class="cls-1" d="M1.3,77.7a1.086,1.086,0,0,1-.9-.4,1.086,1.086,0,0,1-.4-.9V12.7a1.324,1.324,0,0,1,1.3-1.3h12a1.3,1.3,0,1,1,0,2.6H2.5V75.2H12.9a1.3,1.3,0,0,1,0,2.6L1.3,77.7Z"/>
      <path id="Path_61" data-name="Path 61" class="cls-2" d="M13.2,76.4"/>
      <path id="Path_62" data-name="Path 62" class="cls-2" d="M23.3,76.4"/>
      <path id="Path_63" data-name="Path 63" class="cls-1" d="M35.4,77.7H23.7a1.3,1.3,0,0,1,0-2.6H35.4a1.3,1.3,0,0,1,0,2.6Z"/>
      <path id="Path_64" data-name="Path 64" class="cls-2" d="M35.7,76.4"/>
      <path id="Path_65" data-name="Path 65" class="cls-2" d="M46.1,76.4"/>
      <path id="Path_66" data-name="Path 66" class="cls-1" d="M57.9,77.7H46.4a1.3,1.3,0,0,1,0-2.6H57.9a1.3,1.3,0,0,1,0,2.6Z"/>
      <path id="Path_67" data-name="Path 67" class="cls-2" d="M58.2,76.4"/>
      <path id="Path_68" data-name="Path 68" class="cls-2" d="M68.8,76.4"/>
      <path id="Path_69" data-name="Path 69" class="cls-1" d="M79.2,77.7H68.8a1.3,1.3,0,0,1,0-2.6H79.2a1.3,1.3,0,1,1,0,2.6Z"/>
      <path id="Path_70" data-name="Path 70" class="cls-1" d="M79.3,77.7h-.2a1.3,1.3,0,1,1,1.3-1.3A1.164,1.164,0,0,1,79.3,77.7Z"/>
      <path id="Path_71" data-name="Path 71" class="cls-2" d="M88.6,76.4"/>
      <path id="Path_72" data-name="Path 72" class="cls-1" d="M98.7,77.7H89.9a1.3,1.3,0,0,1,0-2.6h7.6V14H73.9a1.3,1.3,0,1,1,0-2.6H98.8a1.324,1.324,0,0,1,1.3,1.3V76.4A1.493,1.493,0,0,1,98.7,77.7Z"/>
      <path id="Path_73" data-name="Path 73" class="cls-2" d="M13.2,12.7"/>
      <path id="Path_74" data-name="Path 74" class="cls-1" d="M18.3,82.9a6.6,6.6,0,1,1,6.6-6.6A6.659,6.659,0,0,1,18.3,82.9Zm0-10.7a4.1,4.1,0,1,0,4.1,4.1A4.118,4.118,0,0,0,18.3,72.2Z"/>
      <path id="Path_75" data-name="Path 75" class="cls-1" d="M63.3,82.9a6.6,6.6,0,1,1,6.6-6.6A6.659,6.659,0,0,1,63.3,82.9Zm0-10.7a4.1,4.1,0,1,0,4.1,4.1A4.118,4.118,0,0,0,63.3,72.2Z"/>
      <path id="Path_76" data-name="Path 76" class="cls-1" d="M40.8,82.9a6.6,6.6,0,1,1,6.6-6.6A6.659,6.659,0,0,1,40.8,82.9Zm0-10.7a4.1,4.1,0,1,0,4.1,4.1A4.055,4.055,0,0,0,40.8,72.2Z"/>
      <path id="Path_77" data-name="Path 77" class="cls-1" d="M25.5,99.9H10.2a1.324,1.324,0,0,1-1.3-1.3V90.4a5.591,5.591,0,0,1,5.6-5.6h6.6a5.591,5.591,0,0,1,5.6,5.6v8.2A1.181,1.181,0,0,1,25.5,99.9ZM11.4,97.4H24.2v-7a3.116,3.116,0,0,0-3.1-3.1H14.5a3.116,3.116,0,0,0-3.1,3.1Z"/>
      <path id="Path_78" data-name="Path 78" class="cls-1" d="M48.5,100H33.2a1.324,1.324,0,0,1-1.3-1.3V90.5a5.591,5.591,0,0,1,5.6-5.6h6.6a5.591,5.591,0,0,1,5.6,5.6v8.2A1.181,1.181,0,0,1,48.5,100ZM34.4,97.5H47.2v-7a3.116,3.116,0,0,0-3.1-3.1H37.5a3.116,3.116,0,0,0-3.1,3.1v7Z"/>
      <path id="Path_79" data-name="Path 79" class="cls-1" d="M71.1,100H55.8a1.324,1.324,0,0,1-1.3-1.3V90.5a5.591,5.591,0,0,1,5.6-5.6h6.6a5.591,5.591,0,0,1,5.6,5.6v8.2A1.181,1.181,0,0,1,71.1,100ZM57,97.5H69.8v-7a3.116,3.116,0,0,0-3.1-3.1H60.1A3.116,3.116,0,0,0,57,90.5v7Z"/>
    </g>
  </g>
</svg>
